<svg xmlns="http://www.w3.org/2000/svg" width="8.030000000000001in" height="7.930000000000001in" viewBox="0 0 8.030 7.930"><rect width="100%" height="100%" fill="#FFFFFF"/>
<rect x="0.500" y="0.500" width="3.240" height="6.480" fill="#F4F5F6" stroke="#111" stroke-width="0.020"/>
<text x="0.500" y="0.380" font-size="0.135" font-family="Helvetica,Arial" font-weight="bold" fill="#111">BIRCH  24 x 48 x 0.719</text>
<rect x="0.500" y="0.500" width="0.473" height="3.873" fill="#FFFFFF" stroke="#111" stroke-width="0.013"/>
<text x="0.736" y="2.482" font-size="0.115" font-family="Helvetica,Arial" text-anchor="middle" fill="#111">P2</text>
<rect x="0.989" y="0.500" width="0.473" height="3.873" fill="#FFFFFF" stroke="#111" stroke-width="0.013"/>
<text x="1.226" y="2.482" font-size="0.115" font-family="Helvetica,Arial" text-anchor="middle" fill="#111">P2</text>
<rect x="1.479" y="0.500" width="0.203" height="3.679" fill="#FFFFFF" stroke="#111" stroke-width="0.013"/>
<text x="1.580" y="2.385" font-size="0.115" font-family="Helvetica,Arial" text-anchor="middle" fill="#111">P9</text>
<rect x="1.698" y="0.500" width="0.203" height="3.679" fill="#FFFFFF" stroke="#111" stroke-width="0.013"/>
<text x="1.799" y="2.385" font-size="0.115" font-family="Helvetica,Arial" text-anchor="middle" fill="#111">P9</text>
<rect x="0.500" y="4.499" width="0.473" height="1.881" fill="#FFFFFF" stroke="#111" stroke-width="0.013"/>
<text x="0.736" y="5.485" font-size="0.115" font-family="Helvetica,Arial" text-anchor="middle" fill="#111">P3</text>
<rect x="0.989" y="4.499" width="0.473" height="1.881" fill="#FFFFFF" stroke="#111" stroke-width="0.013"/>
<text x="1.226" y="5.485" font-size="0.115" font-family="Helvetica,Arial" text-anchor="middle" fill="#111">P3</text>
<rect x="1.479" y="4.499" width="0.540" height="0.392" fill="#FFFFFF" stroke="#111" stroke-width="0.013"/>
<text x="1.749" y="4.740" font-size="0.115" font-family="Helvetica,Arial" text-anchor="middle" fill="#111">P10</text>
<rect x="4.290" y="0.500" width="3.240" height="6.480" fill="#F4F5F6" stroke="#111" stroke-width="0.020"/>
<text x="4.290" y="0.380" font-size="0.135" font-family="Helvetica,Arial" font-weight="bold" fill="#111">MDF  24 x 48 x 0.500</text>
<rect x="4.290" y="0.500" width="1.847" height="3.645" fill="#FFFFFF" stroke="#111" stroke-width="0.013"/>
<text x="5.214" y="2.368" font-size="0.115" font-family="Helvetica,Arial" text-anchor="middle" fill="#111">P4</text>
<text x="0.500" y="7.790" font-size="0.125" font-family="Helvetica,Arial" fill="#111">grain / face runs top-to-bottom  |  no Home Depot cuts  |  all dimensions on a table saw</text>
</svg>