0
SECTION
2
HEADER
9
$INSUNITS
70
1
9
$MEASUREMENT
70
0
0
ENDSEC
0
SECTION
2
TABLES
0
TABLE
2
LAYER
70
2
0
LAYER
2
CUT
70
0
62
7
6
CONTINUOUS
0
LAYER
2
BEND
70
0
62
1
6
CONTINUOUS
0
ENDTAB
0
ENDSEC
0
SECTION
2
ENTITIES
0
LINE
8
CUT
10
0.25000
20
0.00000
30
0.0
11
14.25000
21
0.00000
31
0.0
0
LINE
8
CUT
10
14.50000
20
0.25000
30
0.0
11
14.50000
21
29.75000
31
0.0
0
LINE
8
CUT
10
14.25000
20
30.00000
30
0.0
11
0.25000
21
30.00000
31
0.0
0
LINE
8
CUT
10
0.00000
20
29.75000
30
0.0
11
0.00000
21
0.25000
31
0.0
0
ARC
8
CUT
10
14.25000
20
0.25000
30
0.0
40
0.25000
50
270.0000
51
360.0000
0
ARC
8
CUT
10
14.25000
20
29.75000
30
0.0
40
0.25000
50
0.0000
51
90.0000
0
ARC
8
CUT
10
0.25000
20
29.75000
30
0.0
40
0.25000
50
90.0000
51
180.0000
0
ARC
8
CUT
10
0.25000
20
0.25000
30
0.0
40
0.25000
50
180.0000
51
270.0000
0
LINE
8
CUT
10
1.52000
20
6.62000
30
0.0
11
12.98000
21
6.62000
31
0.0
0
LINE
8
CUT
10
13.10500
20
6.74500
30
0.0
11
13.10500
21
27.35500
31
0.0
0
LINE
8
CUT
10
12.98000
20
27.48000
30
0.0
11
1.52000
21
27.48000
31
0.0
0
LINE
8
CUT
10
1.39500
20
27.35500
30
0.0
11
1.39500
21
6.74500
31
0.0
0
ARC
8
CUT
10
12.98000
20
6.74500
30
0.0
40
0.12500
50
270.0000
51
360.0000
0
ARC
8
CUT
10
12.98000
20
27.35500
30
0.0
40
0.12500
50
0.0000
51
90.0000
0
ARC
8
CUT
10
1.52000
20
27.35500
30
0.0
40
0.12500
50
90.0000
51
180.0000
0
ARC
8
CUT
10
1.52000
20
6.74500
30
0.0
40
0.12500
50
180.0000
51
270.0000
0
CIRCLE
8
CUT
10
1.81250
20
3.50000
30
0.0
40
0.62500
0
CIRCLE
8
CUT
10
4.53125
20
3.50000
30
0.0
40
0.62500
0
CIRCLE
8
CUT
10
7.25000
20
3.50000
30
0.0
40
0.62500
0
CIRCLE
8
CUT
10
9.96875
20
3.50000
30
0.0
40
0.62500
0
CIRCLE
8
CUT
10
12.68750
20
3.50000
30
0.0
40
0.62500
0
CIRCLE
8
CUT
10
3.17188
20
1.95000
30
0.0
40
0.06400
0
CIRCLE
8
CUT
10
3.17188
20
5.05000
30
0.0
40
0.06400
0
CIRCLE
8
CUT
10
11.32812
20
1.95000
30
0.0
40
0.06400
0
CIRCLE
8
CUT
10
11.32812
20
5.05000
30
0.0
40
0.06400
0
CIRCLE
8
CUT
10
1.25000
20
29.00000
30
0.0
40
0.06400
0
CIRCLE
8
CUT
10
5.25000
20
29.00000
30
0.0
40
0.06400
0
CIRCLE
8
CUT
10
0.35000
20
1.00000
30
0.0
40
0.06400
0
CIRCLE
8
CUT
10
14.15000
20
1.00000
30
0.0
40
0.06400
0
CIRCLE
8
CUT
10
0.35000
20
7.50000
30
0.0
40
0.06400
0
CIRCLE
8
CUT
10
14.15000
20
7.50000
30
0.0
40
0.06400
0
CIRCLE
8
CUT
10
0.35000
20
15.00000
30
0.0
40
0.06400
0
CIRCLE
8
CUT
10
14.15000
20
15.00000
30
0.0
40
0.06400
0
CIRCLE
8
CUT
10
0.35000
20
22.50000
30
0.0
40
0.06400
0
CIRCLE
8
CUT
10
14.15000
20
22.50000
30
0.0
40
0.06400
0
CIRCLE
8
CUT
10
0.35000
20
29.00000
30
0.0
40
0.06400
0
CIRCLE
8
CUT
10
14.15000
20
29.00000
30
0.0
40
0.06400
0
CIRCLE
8
CUT
10
4.83333
20
0.35000
30
0.0
40
0.06400
0
CIRCLE
8
CUT
10
4.83333
20
29.65000
30
0.0
40
0.06400
0
CIRCLE
8
CUT
10
9.66667
20
0.35000
30
0.0
40
0.06400
0
CIRCLE
8
CUT
10
9.66667
20
29.65000
30
0.0
40
0.06400
0
ENDSEC
0
EOF
