0
SECTION
2
HEADER
9
$INSUNITS
70
1
9
$MEASUREMENT
70
0
0
ENDSEC
0
SECTION
2
TABLES
0
TABLE
2
LAYER
70
2
0
LAYER
2
CUT
70
0
62
7
6
CONTINUOUS
0
LAYER
2
BEND
70
0
62
1
6
CONTINUOUS
0
ENDTAB
0
ENDSEC
0
SECTION
2
ENTITIES
0
LINE
8
CUT
10
2.28852
20
0.00000
30
0.0
11
16.78852
21
0.00000
31
0.0
0
LINE
8
CUT
10
16.78852
20
0.00000
30
0.0
11
16.78852
21
2.28852
31
0.0
0
LINE
8
CUT
10
16.78852
20
2.28852
30
0.0
11
19.07705
21
2.28852
31
0.0
0
LINE
8
CUT
10
19.07705
20
2.28852
30
0.0
11
19.07705
21
32.28852
31
0.0
0
LINE
8
CUT
10
19.07705
20
32.28852
30
0.0
11
16.78852
21
32.28852
31
0.0
0
LINE
8
CUT
10
16.78852
20
32.28852
30
0.0
11
16.78852
21
34.57705
31
0.0
0
LINE
8
CUT
10
16.78852
20
34.57705
30
0.0
11
2.28852
21
34.57705
31
0.0
0
LINE
8
CUT
10
2.28852
20
34.57705
30
0.0
11
2.28852
21
32.28852
31
0.0
0
LINE
8
CUT
10
2.28852
20
32.28852
30
0.0
11
0.00000
21
32.28852
31
0.0
0
LINE
8
CUT
10
0.00000
20
32.28852
30
0.0
11
0.00000
21
2.28852
31
0.0
0
LINE
8
CUT
10
0.00000
20
2.28852
30
0.0
11
2.28852
21
2.28852
31
0.0
0
LINE
8
CUT
10
2.28852
20
2.28852
30
0.0
11
2.28852
21
0.00000
31
0.0
0
LINE
8
CUT
10
3.65995
20
3.58852
30
0.0
11
5.05995
21
3.58852
31
0.0
0
LINE
8
CUT
10
5.05995
20
3.38852
30
0.0
11
3.65995
21
3.38852
31
0.0
0
ARC
8
CUT
10
5.05995
20
3.48852
30
0.0
40
0.10000
50
270.0000
51
90.0000
0
ARC
8
CUT
10
3.65995
20
3.48852
30
0.0
40
0.10000
50
90.0000
51
270.0000
0
LINE
8
CUT
10
5.73138
20
3.58852
30
0.0
11
7.13138
21
3.58852
31
0.0
0
LINE
8
CUT
10
7.13138
20
3.38852
30
0.0
11
5.73138
21
3.38852
31
0.0
0
ARC
8
CUT
10
7.13138
20
3.48852
30
0.0
40
0.10000
50
270.0000
51
90.0000
0
ARC
8
CUT
10
5.73138
20
3.48852
30
0.0
40
0.10000
50
90.0000
51
270.0000
0
LINE
8
CUT
10
7.80281
20
3.58852
30
0.0
11
9.20281
21
3.58852
31
0.0
0
LINE
8
CUT
10
9.20281
20
3.38852
30
0.0
11
7.80281
21
3.38852
31
0.0
0
ARC
8
CUT
10
9.20281
20
3.48852
30
0.0
40
0.10000
50
270.0000
51
90.0000
0
ARC
8
CUT
10
7.80281
20
3.48852
30
0.0
40
0.10000
50
90.0000
51
270.0000
0
LINE
8
CUT
10
9.87424
20
3.58852
30
0.0
11
11.27424
21
3.58852
31
0.0
0
LINE
8
CUT
10
11.27424
20
3.38852
30
0.0
11
9.87424
21
3.38852
31
0.0
0
ARC
8
CUT
10
11.27424
20
3.48852
30
0.0
40
0.10000
50
270.0000
51
90.0000
0
ARC
8
CUT
10
9.87424
20
3.48852
30
0.0
40
0.10000
50
90.0000
51
270.0000
0
LINE
8
CUT
10
11.94567
20
3.58852
30
0.0
11
13.34567
21
3.58852
31
0.0
0
LINE
8
CUT
10
13.34567
20
3.38852
30
0.0
11
11.94567
21
3.38852
31
0.0
0
ARC
8
CUT
10
13.34567
20
3.48852
30
0.0
40
0.10000
50
270.0000
51
90.0000
0
ARC
8
CUT
10
11.94567
20
3.48852
30
0.0
40
0.10000
50
90.0000
51
270.0000
0
LINE
8
CUT
10
14.01709
20
3.58852
30
0.0
11
15.41709
21
3.58852
31
0.0
0
LINE
8
CUT
10
15.41709
20
3.38852
30
0.0
11
14.01709
21
3.38852
31
0.0
0
ARC
8
CUT
10
15.41709
20
3.48852
30
0.0
40
0.10000
50
270.0000
51
90.0000
0
ARC
8
CUT
10
14.01709
20
3.48852
30
0.0
40
0.10000
50
90.0000
51
270.0000
0
LINE
8
CUT
10
3.65995
20
4.33852
30
0.0
11
5.05995
21
4.33852
31
0.0
0
LINE
8
CUT
10
5.05995
20
4.13852
30
0.0
11
3.65995
21
4.13852
31
0.0
0
ARC
8
CUT
10
5.05995
20
4.23852
30
0.0
40
0.10000
50
270.0000
51
90.0000
0
ARC
8
CUT
10
3.65995
20
4.23852
30
0.0
40
0.10000
50
90.0000
51
270.0000
0
LINE
8
CUT
10
5.73138
20
4.33852
30
0.0
11
7.13138
21
4.33852
31
0.0
0
LINE
8
CUT
10
7.13138
20
4.13852
30
0.0
11
5.73138
21
4.13852
31
0.0
0
ARC
8
CUT
10
7.13138
20
4.23852
30
0.0
40
0.10000
50
270.0000
51
90.0000
0
ARC
8
CUT
10
5.73138
20
4.23852
30
0.0
40
0.10000
50
90.0000
51
270.0000
0
LINE
8
CUT
10
7.80281
20
4.33852
30
0.0
11
9.20281
21
4.33852
31
0.0
0
LINE
8
CUT
10
9.20281
20
4.13852
30
0.0
11
7.80281
21
4.13852
31
0.0
0
ARC
8
CUT
10
9.20281
20
4.23852
30
0.0
40
0.10000
50
270.0000
51
90.0000
0
ARC
8
CUT
10
7.80281
20
4.23852
30
0.0
40
0.10000
50
90.0000
51
270.0000
0
LINE
8
CUT
10
9.87424
20
4.33852
30
0.0
11
11.27424
21
4.33852
31
0.0
0
LINE
8
CUT
10
11.27424
20
4.13852
30
0.0
11
9.87424
21
4.13852
31
0.0
0
ARC
8
CUT
10
11.27424
20
4.23852
30
0.0
40
0.10000
50
270.0000
51
90.0000
0
ARC
8
CUT
10
9.87424
20
4.23852
30
0.0
40
0.10000
50
90.0000
51
270.0000
0
LINE
8
CUT
10
11.94567
20
4.33852
30
0.0
11
13.34567
21
4.33852
31
0.0
0
LINE
8
CUT
10
13.34567
20
4.13852
30
0.0
11
11.94567
21
4.13852
31
0.0
0
ARC
8
CUT
10
13.34567
20
4.23852
30
0.0
40
0.10000
50
270.0000
51
90.0000
0
ARC
8
CUT
10
11.94567
20
4.23852
30
0.0
40
0.10000
50
90.0000
51
270.0000
0
LINE
8
CUT
10
14.01709
20
4.33852
30
0.0
11
15.41709
21
4.33852
31
0.0
0
LINE
8
CUT
10
15.41709
20
4.13852
30
0.0
11
14.01709
21
4.13852
31
0.0
0
ARC
8
CUT
10
15.41709
20
4.23852
30
0.0
40
0.10000
50
270.0000
51
90.0000
0
ARC
8
CUT
10
14.01709
20
4.23852
30
0.0
40
0.10000
50
90.0000
51
270.0000
0
LINE
8
CUT
10
3.65995
20
5.08852
30
0.0
11
5.05995
21
5.08852
31
0.0
0
LINE
8
CUT
10
5.05995
20
4.88852
30
0.0
11
3.65995
21
4.88852
31
0.0
0
ARC
8
CUT
10
5.05995
20
4.98852
30
0.0
40
0.10000
50
270.0000
51
90.0000
0
ARC
8
CUT
10
3.65995
20
4.98852
30
0.0
40
0.10000
50
90.0000
51
270.0000
0
LINE
8
CUT
10
5.73138
20
5.08852
30
0.0
11
7.13138
21
5.08852
31
0.0
0
LINE
8
CUT
10
7.13138
20
4.88852
30
0.0
11
5.73138
21
4.88852
31
0.0
0
ARC
8
CUT
10
7.13138
20
4.98852
30
0.0
40
0.10000
50
270.0000
51
90.0000
0
ARC
8
CUT
10
5.73138
20
4.98852
30
0.0
40
0.10000
50
90.0000
51
270.0000
0
LINE
8
CUT
10
7.80281
20
5.08852
30
0.0
11
9.20281
21
5.08852
31
0.0
0
LINE
8
CUT
10
9.20281
20
4.88852
30
0.0
11
7.80281
21
4.88852
31
0.0
0
ARC
8
CUT
10
9.20281
20
4.98852
30
0.0
40
0.10000
50
270.0000
51
90.0000
0
ARC
8
CUT
10
7.80281
20
4.98852
30
0.0
40
0.10000
50
90.0000
51
270.0000
0
LINE
8
CUT
10
9.87424
20
5.08852
30
0.0
11
11.27424
21
5.08852
31
0.0
0
LINE
8
CUT
10
11.27424
20
4.88852
30
0.0
11
9.87424
21
4.88852
31
0.0
0
ARC
8
CUT
10
11.27424
20
4.98852
30
0.0
40
0.10000
50
270.0000
51
90.0000
0
ARC
8
CUT
10
9.87424
20
4.98852
30
0.0
40
0.10000
50
90.0000
51
270.0000
0
LINE
8
CUT
10
11.94567
20
5.08852
30
0.0
11
13.34567
21
5.08852
31
0.0
0
LINE
8
CUT
10
13.34567
20
4.88852
30
0.0
11
11.94567
21
4.88852
31
0.0
0
ARC
8
CUT
10
13.34567
20
4.98852
30
0.0
40
0.10000
50
270.0000
51
90.0000
0
ARC
8
CUT
10
11.94567
20
4.98852
30
0.0
40
0.10000
50
90.0000
51
270.0000
0
LINE
8
CUT
10
14.01709
20
5.08852
30
0.0
11
15.41709
21
5.08852
31
0.0
0
LINE
8
CUT
10
15.41709
20
4.88852
30
0.0
11
14.01709
21
4.88852
31
0.0
0
ARC
8
CUT
10
15.41709
20
4.98852
30
0.0
40
0.10000
50
270.0000
51
90.0000
0
ARC
8
CUT
10
14.01709
20
4.98852
30
0.0
40
0.10000
50
90.0000
51
270.0000
0
LINE
8
CUT
10
3.65995
20
5.83852
30
0.0
11
5.05995
21
5.83852
31
0.0
0
LINE
8
CUT
10
5.05995
20
5.63852
30
0.0
11
3.65995
21
5.63852
31
0.0
0
ARC
8
CUT
10
5.05995
20
5.73852
30
0.0
40
0.10000
50
270.0000
51
90.0000
0
ARC
8
CUT
10
3.65995
20
5.73852
30
0.0
40
0.10000
50
90.0000
51
270.0000
0
LINE
8
CUT
10
5.73138
20
5.83852
30
0.0
11
7.13138
21
5.83852
31
0.0
0
LINE
8
CUT
10
7.13138
20
5.63852
30
0.0
11
5.73138
21
5.63852
31
0.0
0
ARC
8
CUT
10
7.13138
20
5.73852
30
0.0
40
0.10000
50
270.0000
51
90.0000
0
ARC
8
CUT
10
5.73138
20
5.73852
30
0.0
40
0.10000
50
90.0000
51
270.0000
0
LINE
8
CUT
10
7.80281
20
5.83852
30
0.0
11
9.20281
21
5.83852
31
0.0
0
LINE
8
CUT
10
9.20281
20
5.63852
30
0.0
11
7.80281
21
5.63852
31
0.0
0
ARC
8
CUT
10
9.20281
20
5.73852
30
0.0
40
0.10000
50
270.0000
51
90.0000
0
ARC
8
CUT
10
7.80281
20
5.73852
30
0.0
40
0.10000
50
90.0000
51
270.0000
0
LINE
8
CUT
10
9.87424
20
5.83852
30
0.0
11
11.27424
21
5.83852
31
0.0
0
LINE
8
CUT
10
11.27424
20
5.63852
30
0.0
11
9.87424
21
5.63852
31
0.0
0
ARC
8
CUT
10
11.27424
20
5.73852
30
0.0
40
0.10000
50
270.0000
51
90.0000
0
ARC
8
CUT
10
9.87424
20
5.73852
30
0.0
40
0.10000
50
90.0000
51
270.0000
0
LINE
8
CUT
10
11.94567
20
5.83852
30
0.0
11
13.34567
21
5.83852
31
0.0
0
LINE
8
CUT
10
13.34567
20
5.63852
30
0.0
11
11.94567
21
5.63852
31
0.0
0
ARC
8
CUT
10
13.34567
20
5.73852
30
0.0
40
0.10000
50
270.0000
51
90.0000
0
ARC
8
CUT
10
11.94567
20
5.73852
30
0.0
40
0.10000
50
90.0000
51
270.0000
0
LINE
8
CUT
10
14.01709
20
5.83852
30
0.0
11
15.41709
21
5.83852
31
0.0
0
LINE
8
CUT
10
15.41709
20
5.63852
30
0.0
11
14.01709
21
5.63852
31
0.0
0
ARC
8
CUT
10
15.41709
20
5.73852
30
0.0
40
0.10000
50
270.0000
51
90.0000
0
ARC
8
CUT
10
14.01709
20
5.73852
30
0.0
40
0.10000
50
90.0000
51
270.0000
0
LINE
8
CUT
10
3.65995
20
6.58852
30
0.0
11
5.05995
21
6.58852
31
0.0
0
LINE
8
CUT
10
5.05995
20
6.38852
30
0.0
11
3.65995
21
6.38852
31
0.0
0
ARC
8
CUT
10
5.05995
20
6.48852
30
0.0
40
0.10000
50
270.0000
51
90.0000
0
ARC
8
CUT
10
3.65995
20
6.48852
30
0.0
40
0.10000
50
90.0000
51
270.0000
0
LINE
8
CUT
10
5.73138
20
6.58852
30
0.0
11
7.13138
21
6.58852
31
0.0
0
LINE
8
CUT
10
7.13138
20
6.38852
30
0.0
11
5.73138
21
6.38852
31
0.0
0
ARC
8
CUT
10
7.13138
20
6.48852
30
0.0
40
0.10000
50
270.0000
51
90.0000
0
ARC
8
CUT
10
5.73138
20
6.48852
30
0.0
40
0.10000
50
90.0000
51
270.0000
0
LINE
8
CUT
10
7.80281
20
6.58852
30
0.0
11
9.20281
21
6.58852
31
0.0
0
LINE
8
CUT
10
9.20281
20
6.38852
30
0.0
11
7.80281
21
6.38852
31
0.0
0
ARC
8
CUT
10
9.20281
20
6.48852
30
0.0
40
0.10000
50
270.0000
51
90.0000
0
ARC
8
CUT
10
7.80281
20
6.48852
30
0.0
40
0.10000
50
90.0000
51
270.0000
0
LINE
8
CUT
10
9.87424
20
6.58852
30
0.0
11
11.27424
21
6.58852
31
0.0
0
LINE
8
CUT
10
11.27424
20
6.38852
30
0.0
11
9.87424
21
6.38852
31
0.0
0
ARC
8
CUT
10
11.27424
20
6.48852
30
0.0
40
0.10000
50
270.0000
51
90.0000
0
ARC
8
CUT
10
9.87424
20
6.48852
30
0.0
40
0.10000
50
90.0000
51
270.0000
0
LINE
8
CUT
10
11.94567
20
6.58852
30
0.0
11
13.34567
21
6.58852
31
0.0
0
LINE
8
CUT
10
13.34567
20
6.38852
30
0.0
11
11.94567
21
6.38852
31
0.0
0
ARC
8
CUT
10
13.34567
20
6.48852
30
0.0
40
0.10000
50
270.0000
51
90.0000
0
ARC
8
CUT
10
11.94567
20
6.48852
30
0.0
40
0.10000
50
90.0000
51
270.0000
0
LINE
8
CUT
10
14.01709
20
6.58852
30
0.0
11
15.41709
21
6.58852
31
0.0
0
LINE
8
CUT
10
15.41709
20
6.38852
30
0.0
11
14.01709
21
6.38852
31
0.0
0
ARC
8
CUT
10
15.41709
20
6.48852
30
0.0
40
0.10000
50
270.0000
51
90.0000
0
ARC
8
CUT
10
14.01709
20
6.48852
30
0.0
40
0.10000
50
90.0000
51
270.0000
0
LINE
8
CUT
10
3.65995
20
7.33852
30
0.0
11
5.05995
21
7.33852
31
0.0
0
LINE
8
CUT
10
5.05995
20
7.13852
30
0.0
11
3.65995
21
7.13852
31
0.0
0
ARC
8
CUT
10
5.05995
20
7.23852
30
0.0
40
0.10000
50
270.0000
51
90.0000
0
ARC
8
CUT
10
3.65995
20
7.23852
30
0.0
40
0.10000
50
90.0000
51
270.0000
0
LINE
8
CUT
10
5.73138
20
7.33852
30
0.0
11
7.13138
21
7.33852
31
0.0
0
LINE
8
CUT
10
7.13138
20
7.13852
30
0.0
11
5.73138
21
7.13852
31
0.0
0
ARC
8
CUT
10
7.13138
20
7.23852
30
0.0
40
0.10000
50
270.0000
51
90.0000
0
ARC
8
CUT
10
5.73138
20
7.23852
30
0.0
40
0.10000
50
90.0000
51
270.0000
0
LINE
8
CUT
10
7.80281
20
7.33852
30
0.0
11
9.20281
21
7.33852
31
0.0
0
LINE
8
CUT
10
9.20281
20
7.13852
30
0.0
11
7.80281
21
7.13852
31
0.0
0
ARC
8
CUT
10
9.20281
20
7.23852
30
0.0
40
0.10000
50
270.0000
51
90.0000
0
ARC
8
CUT
10
7.80281
20
7.23852
30
0.0
40
0.10000
50
90.0000
51
270.0000
0
LINE
8
CUT
10
9.87424
20
7.33852
30
0.0
11
11.27424
21
7.33852
31
0.0
0
LINE
8
CUT
10
11.27424
20
7.13852
30
0.0
11
9.87424
21
7.13852
31
0.0
0
ARC
8
CUT
10
11.27424
20
7.23852
30
0.0
40
0.10000
50
270.0000
51
90.0000
0
ARC
8
CUT
10
9.87424
20
7.23852
30
0.0
40
0.10000
50
90.0000
51
270.0000
0
LINE
8
CUT
10
11.94567
20
7.33852
30
0.0
11
13.34567
21
7.33852
31
0.0
0
LINE
8
CUT
10
13.34567
20
7.13852
30
0.0
11
11.94567
21
7.13852
31
0.0
0
ARC
8
CUT
10
13.34567
20
7.23852
30
0.0
40
0.10000
50
270.0000
51
90.0000
0
ARC
8
CUT
10
11.94567
20
7.23852
30
0.0
40
0.10000
50
90.0000
51
270.0000
0
LINE
8
CUT
10
14.01709
20
7.33852
30
0.0
11
15.41709
21
7.33852
31
0.0
0
LINE
8
CUT
10
15.41709
20
7.13852
30
0.0
11
14.01709
21
7.13852
31
0.0
0
ARC
8
CUT
10
15.41709
20
7.23852
30
0.0
40
0.10000
50
270.0000
51
90.0000
0
ARC
8
CUT
10
14.01709
20
7.23852
30
0.0
40
0.10000
50
90.0000
51
270.0000
0
LINE
8
CUT
10
3.65995
20
8.08852
30
0.0
11
5.05995
21
8.08852
31
0.0
0
LINE
8
CUT
10
5.05995
20
7.88852
30
0.0
11
3.65995
21
7.88852
31
0.0
0
ARC
8
CUT
10
5.05995
20
7.98852
30
0.0
40
0.10000
50
270.0000
51
90.0000
0
ARC
8
CUT
10
3.65995
20
7.98852
30
0.0
40
0.10000
50
90.0000
51
270.0000
0
LINE
8
CUT
10
5.73138
20
8.08852
30
0.0
11
7.13138
21
8.08852
31
0.0
0
LINE
8
CUT
10
7.13138
20
7.88852
30
0.0
11
5.73138
21
7.88852
31
0.0
0
ARC
8
CUT
10
7.13138
20
7.98852
30
0.0
40
0.10000
50
270.0000
51
90.0000
0
ARC
8
CUT
10
5.73138
20
7.98852
30
0.0
40
0.10000
50
90.0000
51
270.0000
0
LINE
8
CUT
10
7.80281
20
8.08852
30
0.0
11
9.20281
21
8.08852
31
0.0
0
LINE
8
CUT
10
9.20281
20
7.88852
30
0.0
11
7.80281
21
7.88852
31
0.0
0
ARC
8
CUT
10
9.20281
20
7.98852
30
0.0
40
0.10000
50
270.0000
51
90.0000
0
ARC
8
CUT
10
7.80281
20
7.98852
30
0.0
40
0.10000
50
90.0000
51
270.0000
0
LINE
8
CUT
10
9.87424
20
8.08852
30
0.0
11
11.27424
21
8.08852
31
0.0
0
LINE
8
CUT
10
11.27424
20
7.88852
30
0.0
11
9.87424
21
7.88852
31
0.0
0
ARC
8
CUT
10
11.27424
20
7.98852
30
0.0
40
0.10000
50
270.0000
51
90.0000
0
ARC
8
CUT
10
9.87424
20
7.98852
30
0.0
40
0.10000
50
90.0000
51
270.0000
0
LINE
8
CUT
10
11.94567
20
8.08852
30
0.0
11
13.34567
21
8.08852
31
0.0
0
LINE
8
CUT
10
13.34567
20
7.88852
30
0.0
11
11.94567
21
7.88852
31
0.0
0
ARC
8
CUT
10
13.34567
20
7.98852
30
0.0
40
0.10000
50
270.0000
51
90.0000
0
ARC
8
CUT
10
11.94567
20
7.98852
30
0.0
40
0.10000
50
90.0000
51
270.0000
0
LINE
8
CUT
10
14.01709
20
8.08852
30
0.0
11
15.41709
21
8.08852
31
0.0
0
LINE
8
CUT
10
15.41709
20
7.88852
30
0.0
11
14.01709
21
7.88852
31
0.0
0
ARC
8
CUT
10
15.41709
20
7.98852
30
0.0
40
0.10000
50
270.0000
51
90.0000
0
ARC
8
CUT
10
14.01709
20
7.98852
30
0.0
40
0.10000
50
90.0000
51
270.0000
0
LINE
8
CUT
10
3.65995
20
8.83852
30
0.0
11
5.05995
21
8.83852
31
0.0
0
LINE
8
CUT
10
5.05995
20
8.63852
30
0.0
11
3.65995
21
8.63852
31
0.0
0
ARC
8
CUT
10
5.05995
20
8.73852
30
0.0
40
0.10000
50
270.0000
51
90.0000
0
ARC
8
CUT
10
3.65995
20
8.73852
30
0.0
40
0.10000
50
90.0000
51
270.0000
0
LINE
8
CUT
10
5.73138
20
8.83852
30
0.0
11
7.13138
21
8.83852
31
0.0
0
LINE
8
CUT
10
7.13138
20
8.63852
30
0.0
11
5.73138
21
8.63852
31
0.0
0
ARC
8
CUT
10
7.13138
20
8.73852
30
0.0
40
0.10000
50
270.0000
51
90.0000
0
ARC
8
CUT
10
5.73138
20
8.73852
30
0.0
40
0.10000
50
90.0000
51
270.0000
0
LINE
8
CUT
10
7.80281
20
8.83852
30
0.0
11
9.20281
21
8.83852
31
0.0
0
LINE
8
CUT
10
9.20281
20
8.63852
30
0.0
11
7.80281
21
8.63852
31
0.0
0
ARC
8
CUT
10
9.20281
20
8.73852
30
0.0
40
0.10000
50
270.0000
51
90.0000
0
ARC
8
CUT
10
7.80281
20
8.73852
30
0.0
40
0.10000
50
90.0000
51
270.0000
0
LINE
8
CUT
10
9.87424
20
8.83852
30
0.0
11
11.27424
21
8.83852
31
0.0
0
LINE
8
CUT
10
11.27424
20
8.63852
30
0.0
11
9.87424
21
8.63852
31
0.0
0
ARC
8
CUT
10
11.27424
20
8.73852
30
0.0
40
0.10000
50
270.0000
51
90.0000
0
ARC
8
CUT
10
9.87424
20
8.73852
30
0.0
40
0.10000
50
90.0000
51
270.0000
0
LINE
8
CUT
10
11.94567
20
8.83852
30
0.0
11
13.34567
21
8.83852
31
0.0
0
LINE
8
CUT
10
13.34567
20
8.63852
30
0.0
11
11.94567
21
8.63852
31
0.0
0
ARC
8
CUT
10
13.34567
20
8.73852
30
0.0
40
0.10000
50
270.0000
51
90.0000
0
ARC
8
CUT
10
11.94567
20
8.73852
30
0.0
40
0.10000
50
90.0000
51
270.0000
0
LINE
8
CUT
10
14.01709
20
8.83852
30
0.0
11
15.41709
21
8.83852
31
0.0
0
LINE
8
CUT
10
15.41709
20
8.63852
30
0.0
11
14.01709
21
8.63852
31
0.0
0
ARC
8
CUT
10
15.41709
20
8.73852
30
0.0
40
0.10000
50
270.0000
51
90.0000
0
ARC
8
CUT
10
14.01709
20
8.73852
30
0.0
40
0.10000
50
90.0000
51
270.0000
0
LINE
8
CUT
10
3.65995
20
9.58852
30
0.0
11
5.05995
21
9.58852
31
0.0
0
LINE
8
CUT
10
5.05995
20
9.38852
30
0.0
11
3.65995
21
9.38852
31
0.0
0
ARC
8
CUT
10
5.05995
20
9.48852
30
0.0
40
0.10000
50
270.0000
51
90.0000
0
ARC
8
CUT
10
3.65995
20
9.48852
30
0.0
40
0.10000
50
90.0000
51
270.0000
0
LINE
8
CUT
10
5.73138
20
9.58852
30
0.0
11
7.13138
21
9.58852
31
0.0
0
LINE
8
CUT
10
7.13138
20
9.38852
30
0.0
11
5.73138
21
9.38852
31
0.0
0
ARC
8
CUT
10
7.13138
20
9.48852
30
0.0
40
0.10000
50
270.0000
51
90.0000
0
ARC
8
CUT
10
5.73138
20
9.48852
30
0.0
40
0.10000
50
90.0000
51
270.0000
0
LINE
8
CUT
10
7.80281
20
9.58852
30
0.0
11
9.20281
21
9.58852
31
0.0
0
LINE
8
CUT
10
9.20281
20
9.38852
30
0.0
11
7.80281
21
9.38852
31
0.0
0
ARC
8
CUT
10
9.20281
20
9.48852
30
0.0
40
0.10000
50
270.0000
51
90.0000
0
ARC
8
CUT
10
7.80281
20
9.48852
30
0.0
40
0.10000
50
90.0000
51
270.0000
0
LINE
8
CUT
10
9.87424
20
9.58852
30
0.0
11
11.27424
21
9.58852
31
0.0
0
LINE
8
CUT
10
11.27424
20
9.38852
30
0.0
11
9.87424
21
9.38852
31
0.0
0
ARC
8
CUT
10
11.27424
20
9.48852
30
0.0
40
0.10000
50
270.0000
51
90.0000
0
ARC
8
CUT
10
9.87424
20
9.48852
30
0.0
40
0.10000
50
90.0000
51
270.0000
0
LINE
8
CUT
10
11.94567
20
9.58852
30
0.0
11
13.34567
21
9.58852
31
0.0
0
LINE
8
CUT
10
13.34567
20
9.38852
30
0.0
11
11.94567
21
9.38852
31
0.0
0
ARC
8
CUT
10
13.34567
20
9.48852
30
0.0
40
0.10000
50
270.0000
51
90.0000
0
ARC
8
CUT
10
11.94567
20
9.48852
30
0.0
40
0.10000
50
90.0000
51
270.0000
0
LINE
8
CUT
10
14.01709
20
9.58852
30
0.0
11
15.41709
21
9.58852
31
0.0
0
LINE
8
CUT
10
15.41709
20
9.38852
30
0.0
11
14.01709
21
9.38852
31
0.0
0
ARC
8
CUT
10
15.41709
20
9.48852
30
0.0
40
0.10000
50
270.0000
51
90.0000
0
ARC
8
CUT
10
14.01709
20
9.48852
30
0.0
40
0.10000
50
90.0000
51
270.0000
0
LINE
8
CUT
10
3.65995
20
10.33852
30
0.0
11
5.05995
21
10.33852
31
0.0
0
LINE
8
CUT
10
5.05995
20
10.13852
30
0.0
11
3.65995
21
10.13852
31
0.0
0
ARC
8
CUT
10
5.05995
20
10.23852
30
0.0
40
0.10000
50
270.0000
51
90.0000
0
ARC
8
CUT
10
3.65995
20
10.23852
30
0.0
40
0.10000
50
90.0000
51
270.0000
0
LINE
8
CUT
10
5.73138
20
10.33852
30
0.0
11
7.13138
21
10.33852
31
0.0
0
LINE
8
CUT
10
7.13138
20
10.13852
30
0.0
11
5.73138
21
10.13852
31
0.0
0
ARC
8
CUT
10
7.13138
20
10.23852
30
0.0
40
0.10000
50
270.0000
51
90.0000
0
ARC
8
CUT
10
5.73138
20
10.23852
30
0.0
40
0.10000
50
90.0000
51
270.0000
0
LINE
8
CUT
10
7.80281
20
10.33852
30
0.0
11
9.20281
21
10.33852
31
0.0
0
LINE
8
CUT
10
9.20281
20
10.13852
30
0.0
11
7.80281
21
10.13852
31
0.0
0
ARC
8
CUT
10
9.20281
20
10.23852
30
0.0
40
0.10000
50
270.0000
51
90.0000
0
ARC
8
CUT
10
7.80281
20
10.23852
30
0.0
40
0.10000
50
90.0000
51
270.0000
0
LINE
8
CUT
10
9.87424
20
10.33852
30
0.0
11
11.27424
21
10.33852
31
0.0
0
LINE
8
CUT
10
11.27424
20
10.13852
30
0.0
11
9.87424
21
10.13852
31
0.0
0
ARC
8
CUT
10
11.27424
20
10.23852
30
0.0
40
0.10000
50
270.0000
51
90.0000
0
ARC
8
CUT
10
9.87424
20
10.23852
30
0.0
40
0.10000
50
90.0000
51
270.0000
0
LINE
8
CUT
10
11.94567
20
10.33852
30
0.0
11
13.34567
21
10.33852
31
0.0
0
LINE
8
CUT
10
13.34567
20
10.13852
30
0.0
11
11.94567
21
10.13852
31
0.0
0
ARC
8
CUT
10
13.34567
20
10.23852
30
0.0
40
0.10000
50
270.0000
51
90.0000
0
ARC
8
CUT
10
11.94567
20
10.23852
30
0.0
40
0.10000
50
90.0000
51
270.0000
0
LINE
8
CUT
10
14.01709
20
10.33852
30
0.0
11
15.41709
21
10.33852
31
0.0
0
LINE
8
CUT
10
15.41709
20
10.13852
30
0.0
11
14.01709
21
10.13852
31
0.0
0
ARC
8
CUT
10
15.41709
20
10.23852
30
0.0
40
0.10000
50
270.0000
51
90.0000
0
ARC
8
CUT
10
14.01709
20
10.23852
30
0.0
40
0.10000
50
90.0000
51
270.0000
0
LINE
8
CUT
10
3.65995
20
24.43852
30
0.0
11
5.05995
21
24.43852
31
0.0
0
LINE
8
CUT
10
5.05995
20
24.23852
30
0.0
11
3.65995
21
24.23852
31
0.0
0
ARC
8
CUT
10
5.05995
20
24.33852
30
0.0
40
0.10000
50
270.0000
51
90.0000
0
ARC
8
CUT
10
3.65995
20
24.33852
30
0.0
40
0.10000
50
90.0000
51
270.0000
0
LINE
8
CUT
10
5.73138
20
24.43852
30
0.0
11
7.13138
21
24.43852
31
0.0
0
LINE
8
CUT
10
7.13138
20
24.23852
30
0.0
11
5.73138
21
24.23852
31
0.0
0
ARC
8
CUT
10
7.13138
20
24.33852
30
0.0
40
0.10000
50
270.0000
51
90.0000
0
ARC
8
CUT
10
5.73138
20
24.33852
30
0.0
40
0.10000
50
90.0000
51
270.0000
0
LINE
8
CUT
10
7.80281
20
24.43852
30
0.0
11
9.20281
21
24.43852
31
0.0
0
LINE
8
CUT
10
9.20281
20
24.23852
30
0.0
11
7.80281
21
24.23852
31
0.0
0
ARC
8
CUT
10
9.20281
20
24.33852
30
0.0
40
0.10000
50
270.0000
51
90.0000
0
ARC
8
CUT
10
7.80281
20
24.33852
30
0.0
40
0.10000
50
90.0000
51
270.0000
0
LINE
8
CUT
10
9.87424
20
24.43852
30
0.0
11
11.27424
21
24.43852
31
0.0
0
LINE
8
CUT
10
11.27424
20
24.23852
30
0.0
11
9.87424
21
24.23852
31
0.0
0
ARC
8
CUT
10
11.27424
20
24.33852
30
0.0
40
0.10000
50
270.0000
51
90.0000
0
ARC
8
CUT
10
9.87424
20
24.33852
30
0.0
40
0.10000
50
90.0000
51
270.0000
0
LINE
8
CUT
10
11.94567
20
24.43852
30
0.0
11
13.34567
21
24.43852
31
0.0
0
LINE
8
CUT
10
13.34567
20
24.23852
30
0.0
11
11.94567
21
24.23852
31
0.0
0
ARC
8
CUT
10
13.34567
20
24.33852
30
0.0
40
0.10000
50
270.0000
51
90.0000
0
ARC
8
CUT
10
11.94567
20
24.33852
30
0.0
40
0.10000
50
90.0000
51
270.0000
0
LINE
8
CUT
10
14.01709
20
24.43852
30
0.0
11
15.41709
21
24.43852
31
0.0
0
LINE
8
CUT
10
15.41709
20
24.23852
30
0.0
11
14.01709
21
24.23852
31
0.0
0
ARC
8
CUT
10
15.41709
20
24.33852
30
0.0
40
0.10000
50
270.0000
51
90.0000
0
ARC
8
CUT
10
14.01709
20
24.33852
30
0.0
40
0.10000
50
90.0000
51
270.0000
0
LINE
8
CUT
10
3.65995
20
25.18852
30
0.0
11
5.05995
21
25.18852
31
0.0
0
LINE
8
CUT
10
5.05995
20
24.98852
30
0.0
11
3.65995
21
24.98852
31
0.0
0
ARC
8
CUT
10
5.05995
20
25.08852
30
0.0
40
0.10000
50
270.0000
51
90.0000
0
ARC
8
CUT
10
3.65995
20
25.08852
30
0.0
40
0.10000
50
90.0000
51
270.0000
0
LINE
8
CUT
10
5.73138
20
25.18852
30
0.0
11
7.13138
21
25.18852
31
0.0
0
LINE
8
CUT
10
7.13138
20
24.98852
30
0.0
11
5.73138
21
24.98852
31
0.0
0
ARC
8
CUT
10
7.13138
20
25.08852
30
0.0
40
0.10000
50
270.0000
51
90.0000
0
ARC
8
CUT
10
5.73138
20
25.08852
30
0.0
40
0.10000
50
90.0000
51
270.0000
0
LINE
8
CUT
10
7.80281
20
25.18852
30
0.0
11
9.20281
21
25.18852
31
0.0
0
LINE
8
CUT
10
9.20281
20
24.98852
30
0.0
11
7.80281
21
24.98852
31
0.0
0
ARC
8
CUT
10
9.20281
20
25.08852
30
0.0
40
0.10000
50
270.0000
51
90.0000
0
ARC
8
CUT
10
7.80281
20
25.08852
30
0.0
40
0.10000
50
90.0000
51
270.0000
0
LINE
8
CUT
10
9.87424
20
25.18852
30
0.0
11
11.27424
21
25.18852
31
0.0
0
LINE
8
CUT
10
11.27424
20
24.98852
30
0.0
11
9.87424
21
24.98852
31
0.0
0
ARC
8
CUT
10
11.27424
20
25.08852
30
0.0
40
0.10000
50
270.0000
51
90.0000
0
ARC
8
CUT
10
9.87424
20
25.08852
30
0.0
40
0.10000
50
90.0000
51
270.0000
0
LINE
8
CUT
10
11.94567
20
25.18852
30
0.0
11
13.34567
21
25.18852
31
0.0
0
LINE
8
CUT
10
13.34567
20
24.98852
30
0.0
11
11.94567
21
24.98852
31
0.0
0
ARC
8
CUT
10
13.34567
20
25.08852
30
0.0
40
0.10000
50
270.0000
51
90.0000
0
ARC
8
CUT
10
11.94567
20
25.08852
30
0.0
40
0.10000
50
90.0000
51
270.0000
0
LINE
8
CUT
10
14.01709
20
25.18852
30
0.0
11
15.41709
21
25.18852
31
0.0
0
LINE
8
CUT
10
15.41709
20
24.98852
30
0.0
11
14.01709
21
24.98852
31
0.0
0
ARC
8
CUT
10
15.41709
20
25.08852
30
0.0
40
0.10000
50
270.0000
51
90.0000
0
ARC
8
CUT
10
14.01709
20
25.08852
30
0.0
40
0.10000
50
90.0000
51
270.0000
0
LINE
8
CUT
10
3.65995
20
25.93852
30
0.0
11
5.05995
21
25.93852
31
0.0
0
LINE
8
CUT
10
5.05995
20
25.73852
30
0.0
11
3.65995
21
25.73852
31
0.0
0
ARC
8
CUT
10
5.05995
20
25.83852
30
0.0
40
0.10000
50
270.0000
51
90.0000
0
ARC
8
CUT
10
3.65995
20
25.83852
30
0.0
40
0.10000
50
90.0000
51
270.0000
0
LINE
8
CUT
10
5.73138
20
25.93852
30
0.0
11
7.13138
21
25.93852
31
0.0
0
LINE
8
CUT
10
7.13138
20
25.73852
30
0.0
11
5.73138
21
25.73852
31
0.0
0
ARC
8
CUT
10
7.13138
20
25.83852
30
0.0
40
0.10000
50
270.0000
51
90.0000
0
ARC
8
CUT
10
5.73138
20
25.83852
30
0.0
40
0.10000
50
90.0000
51
270.0000
0
LINE
8
CUT
10
7.80281
20
25.93852
30
0.0
11
9.20281
21
25.93852
31
0.0
0
LINE
8
CUT
10
9.20281
20
25.73852
30
0.0
11
7.80281
21
25.73852
31
0.0
0
ARC
8
CUT
10
9.20281
20
25.83852
30
0.0
40
0.10000
50
270.0000
51
90.0000
0
ARC
8
CUT
10
7.80281
20
25.83852
30
0.0
40
0.10000
50
90.0000
51
270.0000
0
LINE
8
CUT
10
9.87424
20
25.93852
30
0.0
11
11.27424
21
25.93852
31
0.0
0
LINE
8
CUT
10
11.27424
20
25.73852
30
0.0
11
9.87424
21
25.73852
31
0.0
0
ARC
8
CUT
10
11.27424
20
25.83852
30
0.0
40
0.10000
50
270.0000
51
90.0000
0
ARC
8
CUT
10
9.87424
20
25.83852
30
0.0
40
0.10000
50
90.0000
51
270.0000
0
LINE
8
CUT
10
11.94567
20
25.93852
30
0.0
11
13.34567
21
25.93852
31
0.0
0
LINE
8
CUT
10
13.34567
20
25.73852
30
0.0
11
11.94567
21
25.73852
31
0.0
0
ARC
8
CUT
10
13.34567
20
25.83852
30
0.0
40
0.10000
50
270.0000
51
90.0000
0
ARC
8
CUT
10
11.94567
20
25.83852
30
0.0
40
0.10000
50
90.0000
51
270.0000
0
LINE
8
CUT
10
14.01709
20
25.93852
30
0.0
11
15.41709
21
25.93852
31
0.0
0
LINE
8
CUT
10
15.41709
20
25.73852
30
0.0
11
14.01709
21
25.73852
31
0.0
0
ARC
8
CUT
10
15.41709
20
25.83852
30
0.0
40
0.10000
50
270.0000
51
90.0000
0
ARC
8
CUT
10
14.01709
20
25.83852
30
0.0
40
0.10000
50
90.0000
51
270.0000
0
LINE
8
CUT
10
3.65995
20
26.68852
30
0.0
11
5.05995
21
26.68852
31
0.0
0
LINE
8
CUT
10
5.05995
20
26.48852
30
0.0
11
3.65995
21
26.48852
31
0.0
0
ARC
8
CUT
10
5.05995
20
26.58852
30
0.0
40
0.10000
50
270.0000
51
90.0000
0
ARC
8
CUT
10
3.65995
20
26.58852
30
0.0
40
0.10000
50
90.0000
51
270.0000
0
LINE
8
CUT
10
5.73138
20
26.68852
30
0.0
11
7.13138
21
26.68852
31
0.0
0
LINE
8
CUT
10
7.13138
20
26.48852
30
0.0
11
5.73138
21
26.48852
31
0.0
0
ARC
8
CUT
10
7.13138
20
26.58852
30
0.0
40
0.10000
50
270.0000
51
90.0000
0
ARC
8
CUT
10
5.73138
20
26.58852
30
0.0
40
0.10000
50
90.0000
51
270.0000
0
LINE
8
CUT
10
7.80281
20
26.68852
30
0.0
11
9.20281
21
26.68852
31
0.0
0
LINE
8
CUT
10
9.20281
20
26.48852
30
0.0
11
7.80281
21
26.48852
31
0.0
0
ARC
8
CUT
10
9.20281
20
26.58852
30
0.0
40
0.10000
50
270.0000
51
90.0000
0
ARC
8
CUT
10
7.80281
20
26.58852
30
0.0
40
0.10000
50
90.0000
51
270.0000
0
LINE
8
CUT
10
9.87424
20
26.68852
30
0.0
11
11.27424
21
26.68852
31
0.0
0
LINE
8
CUT
10
11.27424
20
26.48852
30
0.0
11
9.87424
21
26.48852
31
0.0
0
ARC
8
CUT
10
11.27424
20
26.58852
30
0.0
40
0.10000
50
270.0000
51
90.0000
0
ARC
8
CUT
10
9.87424
20
26.58852
30
0.0
40
0.10000
50
90.0000
51
270.0000
0
LINE
8
CUT
10
11.94567
20
26.68852
30
0.0
11
13.34567
21
26.68852
31
0.0
0
LINE
8
CUT
10
13.34567
20
26.48852
30
0.0
11
11.94567
21
26.48852
31
0.0
0
ARC
8
CUT
10
13.34567
20
26.58852
30
0.0
40
0.10000
50
270.0000
51
90.0000
0
ARC
8
CUT
10
11.94567
20
26.58852
30
0.0
40
0.10000
50
90.0000
51
270.0000
0
LINE
8
CUT
10
14.01709
20
26.68852
30
0.0
11
15.41709
21
26.68852
31
0.0
0
LINE
8
CUT
10
15.41709
20
26.48852
30
0.0
11
14.01709
21
26.48852
31
0.0
0
ARC
8
CUT
10
15.41709
20
26.58852
30
0.0
40
0.10000
50
270.0000
51
90.0000
0
ARC
8
CUT
10
14.01709
20
26.58852
30
0.0
40
0.10000
50
90.0000
51
270.0000
0
LINE
8
CUT
10
3.65995
20
27.43852
30
0.0
11
5.05995
21
27.43852
31
0.0
0
LINE
8
CUT
10
5.05995
20
27.23852
30
0.0
11
3.65995
21
27.23852
31
0.0
0
ARC
8
CUT
10
5.05995
20
27.33852
30
0.0
40
0.10000
50
270.0000
51
90.0000
0
ARC
8
CUT
10
3.65995
20
27.33852
30
0.0
40
0.10000
50
90.0000
51
270.0000
0
LINE
8
CUT
10
5.73138
20
27.43852
30
0.0
11
7.13138
21
27.43852
31
0.0
0
LINE
8
CUT
10
7.13138
20
27.23852
30
0.0
11
5.73138
21
27.23852
31
0.0
0
ARC
8
CUT
10
7.13138
20
27.33852
30
0.0
40
0.10000
50
270.0000
51
90.0000
0
ARC
8
CUT
10
5.73138
20
27.33852
30
0.0
40
0.10000
50
90.0000
51
270.0000
0
LINE
8
CUT
10
7.80281
20
27.43852
30
0.0
11
9.20281
21
27.43852
31
0.0
0
LINE
8
CUT
10
9.20281
20
27.23852
30
0.0
11
7.80281
21
27.23852
31
0.0
0
ARC
8
CUT
10
9.20281
20
27.33852
30
0.0
40
0.10000
50
270.0000
51
90.0000
0
ARC
8
CUT
10
7.80281
20
27.33852
30
0.0
40
0.10000
50
90.0000
51
270.0000
0
LINE
8
CUT
10
9.87424
20
27.43852
30
0.0
11
11.27424
21
27.43852
31
0.0
0
LINE
8
CUT
10
11.27424
20
27.23852
30
0.0
11
9.87424
21
27.23852
31
0.0
0
ARC
8
CUT
10
11.27424
20
27.33852
30
0.0
40
0.10000
50
270.0000
51
90.0000
0
ARC
8
CUT
10
9.87424
20
27.33852
30
0.0
40
0.10000
50
90.0000
51
270.0000
0
LINE
8
CUT
10
11.94567
20
27.43852
30
0.0
11
13.34567
21
27.43852
31
0.0
0
LINE
8
CUT
10
13.34567
20
27.23852
30
0.0
11
11.94567
21
27.23852
31
0.0
0
ARC
8
CUT
10
13.34567
20
27.33852
30
0.0
40
0.10000
50
270.0000
51
90.0000
0
ARC
8
CUT
10
11.94567
20
27.33852
30
0.0
40
0.10000
50
90.0000
51
270.0000
0
LINE
8
CUT
10
14.01709
20
27.43852
30
0.0
11
15.41709
21
27.43852
31
0.0
0
LINE
8
CUT
10
15.41709
20
27.23852
30
0.0
11
14.01709
21
27.23852
31
0.0
0
ARC
8
CUT
10
15.41709
20
27.33852
30
0.0
40
0.10000
50
270.0000
51
90.0000
0
ARC
8
CUT
10
14.01709
20
27.33852
30
0.0
40
0.10000
50
90.0000
51
270.0000
0
LINE
8
CUT
10
3.65995
20
28.18852
30
0.0
11
5.05995
21
28.18852
31
0.0
0
LINE
8
CUT
10
5.05995
20
27.98852
30
0.0
11
3.65995
21
27.98852
31
0.0
0
ARC
8
CUT
10
5.05995
20
28.08852
30
0.0
40
0.10000
50
270.0000
51
90.0000
0
ARC
8
CUT
10
3.65995
20
28.08852
30
0.0
40
0.10000
50
90.0000
51
270.0000
0
LINE
8
CUT
10
5.73138
20
28.18852
30
0.0
11
7.13138
21
28.18852
31
0.0
0
LINE
8
CUT
10
7.13138
20
27.98852
30
0.0
11
5.73138
21
27.98852
31
0.0
0
ARC
8
CUT
10
7.13138
20
28.08852
30
0.0
40
0.10000
50
270.0000
51
90.0000
0
ARC
8
CUT
10
5.73138
20
28.08852
30
0.0
40
0.10000
50
90.0000
51
270.0000
0
LINE
8
CUT
10
7.80281
20
28.18852
30
0.0
11
9.20281
21
28.18852
31
0.0
0
LINE
8
CUT
10
9.20281
20
27.98852
30
0.0
11
7.80281
21
27.98852
31
0.0
0
ARC
8
CUT
10
9.20281
20
28.08852
30
0.0
40
0.10000
50
270.0000
51
90.0000
0
ARC
8
CUT
10
7.80281
20
28.08852
30
0.0
40
0.10000
50
90.0000
51
270.0000
0
LINE
8
CUT
10
9.87424
20
28.18852
30
0.0
11
11.27424
21
28.18852
31
0.0
0
LINE
8
CUT
10
11.27424
20
27.98852
30
0.0
11
9.87424
21
27.98852
31
0.0
0
ARC
8
CUT
10
11.27424
20
28.08852
30
0.0
40
0.10000
50
270.0000
51
90.0000
0
ARC
8
CUT
10
9.87424
20
28.08852
30
0.0
40
0.10000
50
90.0000
51
270.0000
0
LINE
8
CUT
10
11.94567
20
28.18852
30
0.0
11
13.34567
21
28.18852
31
0.0
0
LINE
8
CUT
10
13.34567
20
27.98852
30
0.0
11
11.94567
21
27.98852
31
0.0
0
ARC
8
CUT
10
13.34567
20
28.08852
30
0.0
40
0.10000
50
270.0000
51
90.0000
0
ARC
8
CUT
10
11.94567
20
28.08852
30
0.0
40
0.10000
50
90.0000
51
270.0000
0
LINE
8
CUT
10
14.01709
20
28.18852
30
0.0
11
15.41709
21
28.18852
31
0.0
0
LINE
8
CUT
10
15.41709
20
27.98852
30
0.0
11
14.01709
21
27.98852
31
0.0
0
ARC
8
CUT
10
15.41709
20
28.08852
30
0.0
40
0.10000
50
270.0000
51
90.0000
0
ARC
8
CUT
10
14.01709
20
28.08852
30
0.0
40
0.10000
50
90.0000
51
270.0000
0
LINE
8
CUT
10
3.65995
20
28.93852
30
0.0
11
5.05995
21
28.93852
31
0.0
0
LINE
8
CUT
10
5.05995
20
28.73852
30
0.0
11
3.65995
21
28.73852
31
0.0
0
ARC
8
CUT
10
5.05995
20
28.83852
30
0.0
40
0.10000
50
270.0000
51
90.0000
0
ARC
8
CUT
10
3.65995
20
28.83852
30
0.0
40
0.10000
50
90.0000
51
270.0000
0
LINE
8
CUT
10
5.73138
20
28.93852
30
0.0
11
7.13138
21
28.93852
31
0.0
0
LINE
8
CUT
10
7.13138
20
28.73852
30
0.0
11
5.73138
21
28.73852
31
0.0
0
ARC
8
CUT
10
7.13138
20
28.83852
30
0.0
40
0.10000
50
270.0000
51
90.0000
0
ARC
8
CUT
10
5.73138
20
28.83852
30
0.0
40
0.10000
50
90.0000
51
270.0000
0
LINE
8
CUT
10
7.80281
20
28.93852
30
0.0
11
9.20281
21
28.93852
31
0.0
0
LINE
8
CUT
10
9.20281
20
28.73852
30
0.0
11
7.80281
21
28.73852
31
0.0
0
ARC
8
CUT
10
9.20281
20
28.83852
30
0.0
40
0.10000
50
270.0000
51
90.0000
0
ARC
8
CUT
10
7.80281
20
28.83852
30
0.0
40
0.10000
50
90.0000
51
270.0000
0
LINE
8
CUT
10
9.87424
20
28.93852
30
0.0
11
11.27424
21
28.93852
31
0.0
0
LINE
8
CUT
10
11.27424
20
28.73852
30
0.0
11
9.87424
21
28.73852
31
0.0
0
ARC
8
CUT
10
11.27424
20
28.83852
30
0.0
40
0.10000
50
270.0000
51
90.0000
0
ARC
8
CUT
10
9.87424
20
28.83852
30
0.0
40
0.10000
50
90.0000
51
270.0000
0
LINE
8
CUT
10
11.94567
20
28.93852
30
0.0
11
13.34567
21
28.93852
31
0.0
0
LINE
8
CUT
10
13.34567
20
28.73852
30
0.0
11
11.94567
21
28.73852
31
0.0
0
ARC
8
CUT
10
13.34567
20
28.83852
30
0.0
40
0.10000
50
270.0000
51
90.0000
0
ARC
8
CUT
10
11.94567
20
28.83852
30
0.0
40
0.10000
50
90.0000
51
270.0000
0
LINE
8
CUT
10
14.01709
20
28.93852
30
0.0
11
15.41709
21
28.93852
31
0.0
0
LINE
8
CUT
10
15.41709
20
28.73852
30
0.0
11
14.01709
21
28.73852
31
0.0
0
ARC
8
CUT
10
15.41709
20
28.83852
30
0.0
40
0.10000
50
270.0000
51
90.0000
0
ARC
8
CUT
10
14.01709
20
28.83852
30
0.0
40
0.10000
50
90.0000
51
270.0000
0
LINE
8
CUT
10
3.65995
20
29.68852
30
0.0
11
5.05995
21
29.68852
31
0.0
0
LINE
8
CUT
10
5.05995
20
29.48852
30
0.0
11
3.65995
21
29.48852
31
0.0
0
ARC
8
CUT
10
5.05995
20
29.58852
30
0.0
40
0.10000
50
270.0000
51
90.0000
0
ARC
8
CUT
10
3.65995
20
29.58852
30
0.0
40
0.10000
50
90.0000
51
270.0000
0
LINE
8
CUT
10
5.73138
20
29.68852
30
0.0
11
7.13138
21
29.68852
31
0.0
0
LINE
8
CUT
10
7.13138
20
29.48852
30
0.0
11
5.73138
21
29.48852
31
0.0
0
ARC
8
CUT
10
7.13138
20
29.58852
30
0.0
40
0.10000
50
270.0000
51
90.0000
0
ARC
8
CUT
10
5.73138
20
29.58852
30
0.0
40
0.10000
50
90.0000
51
270.0000
0
LINE
8
CUT
10
7.80281
20
29.68852
30
0.0
11
9.20281
21
29.68852
31
0.0
0
LINE
8
CUT
10
9.20281
20
29.48852
30
0.0
11
7.80281
21
29.48852
31
0.0
0
ARC
8
CUT
10
9.20281
20
29.58852
30
0.0
40
0.10000
50
270.0000
51
90.0000
0
ARC
8
CUT
10
7.80281
20
29.58852
30
0.0
40
0.10000
50
90.0000
51
270.0000
0
LINE
8
CUT
10
9.87424
20
29.68852
30
0.0
11
11.27424
21
29.68852
31
0.0
0
LINE
8
CUT
10
11.27424
20
29.48852
30
0.0
11
9.87424
21
29.48852
31
0.0
0
ARC
8
CUT
10
11.27424
20
29.58852
30
0.0
40
0.10000
50
270.0000
51
90.0000
0
ARC
8
CUT
10
9.87424
20
29.58852
30
0.0
40
0.10000
50
90.0000
51
270.0000
0
LINE
8
CUT
10
11.94567
20
29.68852
30
0.0
11
13.34567
21
29.68852
31
0.0
0
LINE
8
CUT
10
13.34567
20
29.48852
30
0.0
11
11.94567
21
29.48852
31
0.0
0
ARC
8
CUT
10
13.34567
20
29.58852
30
0.0
40
0.10000
50
270.0000
51
90.0000
0
ARC
8
CUT
10
11.94567
20
29.58852
30
0.0
40
0.10000
50
90.0000
51
270.0000
0
LINE
8
CUT
10
14.01709
20
29.68852
30
0.0
11
15.41709
21
29.68852
31
0.0
0
LINE
8
CUT
10
15.41709
20
29.48852
30
0.0
11
14.01709
21
29.48852
31
0.0
0
ARC
8
CUT
10
15.41709
20
29.58852
30
0.0
40
0.10000
50
270.0000
51
90.0000
0
ARC
8
CUT
10
14.01709
20
29.58852
30
0.0
40
0.10000
50
90.0000
51
270.0000
0
LINE
8
CUT
10
3.65995
20
30.43852
30
0.0
11
5.05995
21
30.43852
31
0.0
0
LINE
8
CUT
10
5.05995
20
30.23852
30
0.0
11
3.65995
21
30.23852
31
0.0
0
ARC
8
CUT
10
5.05995
20
30.33852
30
0.0
40
0.10000
50
270.0000
51
90.0000
0
ARC
8
CUT
10
3.65995
20
30.33852
30
0.0
40
0.10000
50
90.0000
51
270.0000
0
LINE
8
CUT
10
5.73138
20
30.43852
30
0.0
11
7.13138
21
30.43852
31
0.0
0
LINE
8
CUT
10
7.13138
20
30.23852
30
0.0
11
5.73138
21
30.23852
31
0.0
0
ARC
8
CUT
10
7.13138
20
30.33852
30
0.0
40
0.10000
50
270.0000
51
90.0000
0
ARC
8
CUT
10
5.73138
20
30.33852
30
0.0
40
0.10000
50
90.0000
51
270.0000
0
LINE
8
CUT
10
7.80281
20
30.43852
30
0.0
11
9.20281
21
30.43852
31
0.0
0
LINE
8
CUT
10
9.20281
20
30.23852
30
0.0
11
7.80281
21
30.23852
31
0.0
0
ARC
8
CUT
10
9.20281
20
30.33852
30
0.0
40
0.10000
50
270.0000
51
90.0000
0
ARC
8
CUT
10
7.80281
20
30.33852
30
0.0
40
0.10000
50
90.0000
51
270.0000
0
LINE
8
CUT
10
9.87424
20
30.43852
30
0.0
11
11.27424
21
30.43852
31
0.0
0
LINE
8
CUT
10
11.27424
20
30.23852
30
0.0
11
9.87424
21
30.23852
31
0.0
0
ARC
8
CUT
10
11.27424
20
30.33852
30
0.0
40
0.10000
50
270.0000
51
90.0000
0
ARC
8
CUT
10
9.87424
20
30.33852
30
0.0
40
0.10000
50
90.0000
51
270.0000
0
LINE
8
CUT
10
11.94567
20
30.43852
30
0.0
11
13.34567
21
30.43852
31
0.0
0
LINE
8
CUT
10
13.34567
20
30.23852
30
0.0
11
11.94567
21
30.23852
31
0.0
0
ARC
8
CUT
10
13.34567
20
30.33852
30
0.0
40
0.10000
50
270.0000
51
90.0000
0
ARC
8
CUT
10
11.94567
20
30.33852
30
0.0
40
0.10000
50
90.0000
51
270.0000
0
LINE
8
CUT
10
14.01709
20
30.43852
30
0.0
11
15.41709
21
30.43852
31
0.0
0
LINE
8
CUT
10
15.41709
20
30.23852
30
0.0
11
14.01709
21
30.23852
31
0.0
0
ARC
8
CUT
10
15.41709
20
30.33852
30
0.0
40
0.10000
50
270.0000
51
90.0000
0
ARC
8
CUT
10
14.01709
20
30.33852
30
0.0
40
0.10000
50
90.0000
51
270.0000
0
LINE
8
CUT
10
3.65995
20
31.18852
30
0.0
11
5.05995
21
31.18852
31
0.0
0
LINE
8
CUT
10
5.05995
20
30.98852
30
0.0
11
3.65995
21
30.98852
31
0.0
0
ARC
8
CUT
10
5.05995
20
31.08852
30
0.0
40
0.10000
50
270.0000
51
90.0000
0
ARC
8
CUT
10
3.65995
20
31.08852
30
0.0
40
0.10000
50
90.0000
51
270.0000
0
LINE
8
CUT
10
5.73138
20
31.18852
30
0.0
11
7.13138
21
31.18852
31
0.0
0
LINE
8
CUT
10
7.13138
20
30.98852
30
0.0
11
5.73138
21
30.98852
31
0.0
0
ARC
8
CUT
10
7.13138
20
31.08852
30
0.0
40
0.10000
50
270.0000
51
90.0000
0
ARC
8
CUT
10
5.73138
20
31.08852
30
0.0
40
0.10000
50
90.0000
51
270.0000
0
LINE
8
CUT
10
7.80281
20
31.18852
30
0.0
11
9.20281
21
31.18852
31
0.0
0
LINE
8
CUT
10
9.20281
20
30.98852
30
0.0
11
7.80281
21
30.98852
31
0.0
0
ARC
8
CUT
10
9.20281
20
31.08852
30
0.0
40
0.10000
50
270.0000
51
90.0000
0
ARC
8
CUT
10
7.80281
20
31.08852
30
0.0
40
0.10000
50
90.0000
51
270.0000
0
LINE
8
CUT
10
9.87424
20
31.18852
30
0.0
11
11.27424
21
31.18852
31
0.0
0
LINE
8
CUT
10
11.27424
20
30.98852
30
0.0
11
9.87424
21
30.98852
31
0.0
0
ARC
8
CUT
10
11.27424
20
31.08852
30
0.0
40
0.10000
50
270.0000
51
90.0000
0
ARC
8
CUT
10
9.87424
20
31.08852
30
0.0
40
0.10000
50
90.0000
51
270.0000
0
LINE
8
CUT
10
11.94567
20
31.18852
30
0.0
11
13.34567
21
31.18852
31
0.0
0
LINE
8
CUT
10
13.34567
20
30.98852
30
0.0
11
11.94567
21
30.98852
31
0.0
0
ARC
8
CUT
10
13.34567
20
31.08852
30
0.0
40
0.10000
50
270.0000
51
90.0000
0
ARC
8
CUT
10
11.94567
20
31.08852
30
0.0
40
0.10000
50
90.0000
51
270.0000
0
LINE
8
CUT
10
14.01709
20
31.18852
30
0.0
11
15.41709
21
31.18852
31
0.0
0
LINE
8
CUT
10
15.41709
20
30.98852
30
0.0
11
14.01709
21
30.98852
31
0.0
0
ARC
8
CUT
10
15.41709
20
31.08852
30
0.0
40
0.10000
50
270.0000
51
90.0000
0
ARC
8
CUT
10
14.01709
20
31.08852
30
0.0
40
0.10000
50
90.0000
51
270.0000
0
CIRCLE
8
CUT
10
1.14426
20
3.28852
30
0.0
40
0.06400
0
CIRCLE
8
CUT
10
17.93279
20
3.28852
30
0.0
40
0.06400
0
CIRCLE
8
CUT
10
1.14426
20
9.78852
30
0.0
40
0.06400
0
CIRCLE
8
CUT
10
17.93279
20
9.78852
30
0.0
40
0.06400
0
CIRCLE
8
CUT
10
1.14426
20
17.28852
30
0.0
40
0.06400
0
CIRCLE
8
CUT
10
17.93279
20
17.28852
30
0.0
40
0.06400
0
CIRCLE
8
CUT
10
1.14426
20
24.78852
30
0.0
40
0.06400
0
CIRCLE
8
CUT
10
17.93279
20
24.78852
30
0.0
40
0.06400
0
CIRCLE
8
CUT
10
1.14426
20
31.28852
30
0.0
40
0.06400
0
CIRCLE
8
CUT
10
17.93279
20
31.28852
30
0.0
40
0.06400
0
CIRCLE
8
CUT
10
7.12186
20
1.14426
30
0.0
40
0.06400
0
CIRCLE
8
CUT
10
7.12186
20
33.43279
30
0.0
40
0.06400
0
CIRCLE
8
CUT
10
11.95519
20
1.14426
30
0.0
40
0.06400
0
CIRCLE
8
CUT
10
11.95519
20
33.43279
30
0.0
40
0.06400
0
LINE
8
BEND
10
2.28852
20
2.28852
30
0.0
11
16.78852
21
2.28852
31
0.0
0
LINE
8
BEND
10
2.28852
20
32.28852
30
0.0
11
16.78852
21
32.28852
31
0.0
0
LINE
8
BEND
10
2.28852
20
2.28852
30
0.0
11
2.28852
21
32.28852
31
0.0
0
LINE
8
BEND
10
16.78852
20
2.28852
30
0.0
11
16.78852
21
32.28852
31
0.0
0
ENDSEC
0
EOF
