0
SECTION
2
HEADER
9
$INSUNITS
70
1
9
$MEASUREMENT
70
0
0
ENDSEC
0
SECTION
2
TABLES
0
TABLE
2
LAYER
70
2
0
LAYER
2
CUT
70
0
62
7
6
CONTINUOUS
0
LAYER
2
BEND
70
0
62
1
6
CONTINUOUS
0
ENDTAB
0
ENDSEC
0
SECTION
2
ENTITIES
0
LINE
8
CUT
10
0.12500
20
0.00000
30
0.0
11
12.67500
21
0.00000
31
0.0
0
LINE
8
CUT
10
12.80000
20
0.12500
30
0.0
11
12.80000
21
3.87500
31
0.0
0
LINE
8
CUT
10
12.67500
20
4.00000
30
0.0
11
0.12500
21
4.00000
31
0.0
0
LINE
8
CUT
10
0.00000
20
3.87500
30
0.0
11
0.00000
21
0.12500
31
0.0
0
ARC
8
CUT
10
12.67500
20
0.12500
30
0.0
40
0.12500
50
270.0000
51
360.0000
0
ARC
8
CUT
10
12.67500
20
3.87500
30
0.0
40
0.12500
50
0.0000
51
90.0000
0
ARC
8
CUT
10
0.12500
20
3.87500
30
0.0
40
0.12500
50
90.0000
51
180.0000
0
ARC
8
CUT
10
0.12500
20
0.12500
30
0.0
40
0.12500
50
180.0000
51
270.0000
0
CIRCLE
8
CUT
10
0.96250
20
2.00000
30
0.0
40
0.56250
0
CIRCLE
8
CUT
10
3.68125
20
2.00000
30
0.0
40
0.56250
0
CIRCLE
8
CUT
10
6.40000
20
2.00000
30
0.0
40
0.56250
0
CIRCLE
8
CUT
10
9.11875
20
2.00000
30
0.0
40
0.56250
0
CIRCLE
8
CUT
10
11.83750
20
2.00000
30
0.0
40
0.56250
0
CIRCLE
8
CUT
10
2.32188
20
0.45000
30
0.0
40
0.06400
0
CIRCLE
8
CUT
10
2.32188
20
3.55000
30
0.0
40
0.06400
0
CIRCLE
8
CUT
10
10.47813
20
0.45000
30
0.0
40
0.06400
0
CIRCLE
8
CUT
10
10.47813
20
3.55000
30
0.0
40
0.06400
0
ENDSEC
0
EOF
