0
SECTION
2
HEADER
9
$INSUNITS
70
1
9
$MEASUREMENT
70
0
0
ENDSEC
0
SECTION
2
TABLES
0
TABLE
2
LAYER
70
2
0
LAYER
2
CUT
70
0
62
7
6
CONTINUOUS
0
LAYER
2
BEND
70
0
62
1
6
CONTINUOUS
0
ENDTAB
0
ENDSEC
0
SECTION
2
ENTITIES
0
LINE
8
CUT
10
0.00000
20
0.00000
30
0.0
11
1.23852
21
0.00000
31
0.0
0
LINE
8
CUT
10
1.23852
20
0.00000
30
0.0
11
1.23852
21
3.00000
31
0.0
0
LINE
8
CUT
10
1.23852
20
3.00000
30
0.0
11
0.00000
21
3.00000
31
0.0
0
LINE
8
CUT
10
0.00000
20
3.00000
30
0.0
11
0.00000
21
0.00000
31
0.0
0
LINE
8
CUT
10
0.28313
20
0.46400
30
0.0
11
0.28313
21
0.73600
31
0.0
0
LINE
8
CUT
10
0.41113
20
0.73600
30
0.0
11
0.41113
21
0.46400
31
0.0
0
ARC
8
CUT
10
0.34713
20
0.73600
30
0.0
40
0.06400
50
0.0000
51
180.0000
0
ARC
8
CUT
10
0.34713
20
0.46400
30
0.0
40
0.06400
50
180.0000
51
360.0000
0
LINE
8
CUT
10
0.28313
20
2.26400
30
0.0
11
0.28313
21
2.53600
31
0.0
0
LINE
8
CUT
10
0.41113
20
2.53600
30
0.0
11
0.41113
21
2.26400
31
0.0
0
ARC
8
CUT
10
0.34713
20
2.53600
30
0.0
40
0.06400
50
0.0000
51
180.0000
0
ARC
8
CUT
10
0.34713
20
2.26400
30
0.0
40
0.06400
50
180.0000
51
360.0000
0
LINE
8
BEND
10
0.69426
20
0.00000
30
0.0
11
0.69426
21
3.00000
31
0.0
0
ENDSEC
0
EOF
