0
SECTION
2
HEADER
9
$INSUNITS
70
1
0
ENDSEC
0
SECTION
2
ENTITIES
0
LINE
8
0
10
0.25000
20
0.00000
30
0.0
11
14.75000
21
0.00000
31
0.0
0
ARC
8
0
10
14.75000
20
0.25000
30
0.0
40
0.25000
50
270.00000
51
360.00000
0
LINE
8
0
10
15.00000
20
0.25000
30
0.0
11
15.00000
21
29.75000
31
0.0
0
ARC
8
0
10
14.75000
20
29.75000
30
0.0
40
0.25000
50
0.00000
51
90.00000
0
LINE
8
0
10
14.75000
20
30.00000
30
0.0
11
0.25000
21
30.00000
31
0.0
0
ARC
8
0
10
0.25000
20
29.75000
30
0.0
40
0.25000
50
90.00000
51
180.00000
0
LINE
8
0
10
0.00000
20
29.75000
30
0.0
11
0.00000
21
0.25000
31
0.0
0
ARC
8
0
10
0.25000
20
0.25000
30
0.0
40
0.25000
50
180.00000
51
270.00000
0
LINE
8
0
10
2.00000
20
7.93750
30
0.0
11
13.00000
21
7.93750
31
0.0
0
ARC
8
0
10
13.00000
20
8.18750
30
0.0
40
0.25000
50
270.00000
51
360.00000
0
LINE
8
0
10
13.25000
20
8.18750
30
0.0
11
13.25000
21
28.25000
31
0.0
0
ARC
8
0
10
13.00000
20
28.25000
30
0.0
40
0.25000
50
0.00000
51
90.00000
0
LINE
8
0
10
13.00000
20
28.50000
30
0.0
11
2.00000
21
28.50000
31
0.0
0
ARC
8
0
10
2.00000
20
28.25000
30
0.0
40
0.25000
50
90.00000
51
180.00000
0
LINE
8
0
10
1.75000
20
28.25000
30
0.0
11
1.75000
21
8.18750
31
0.0
0
ARC
8
0
10
2.00000
20
8.18750
30
0.0
40
0.25000
50
180.00000
51
270.00000
0
CIRCLE
8
0
10
4.00000
20
4.00000
30
0.0
40
0.60039
0
CIRCLE
8
0
10
7.50000
20
4.00000
30
0.0
40
0.60039
0
CIRCLE
8
0
10
11.00000
20
4.00000
30
0.0
40
0.60039
0
CIRCLE
8
0
10
0.50000
20
29.50000
30
0.0
40
0.09375
0
CIRCLE
8
0
10
0.50000
20
22.25000
30
0.0
40
0.09375
0
CIRCLE
8
0
10
0.50000
20
15.00000
30
0.0
40
0.09375
0
CIRCLE
8
0
10
0.50000
20
7.75000
30
0.0
40
0.09375
0
CIRCLE
8
0
10
0.50000
20
0.50000
30
0.0
40
0.09375
0
CIRCLE
8
0
10
14.50000
20
29.50000
30
0.0
40
0.09375
0
CIRCLE
8
0
10
14.50000
20
22.25000
30
0.0
40
0.09375
0
CIRCLE
8
0
10
14.50000
20
15.00000
30
0.0
40
0.09375
0
CIRCLE
8
0
10
14.50000
20
7.75000
30
0.0
40
0.09375
0
CIRCLE
8
0
10
14.50000
20
0.50000
30
0.0
40
0.09375
0
CIRCLE
8
0
10
7.50000
20
29.50000
30
0.0
40
0.09375
0
CIRCLE
8
0
10
7.50000
20
0.50000
30
0.0
40
0.09375
0
CIRCLE
8
0
10
3.50000
20
6.00000
30
0.0
40
0.09375
0
CIRCLE
8
0
10
7.50000
20
6.00000
30
0.0
40
0.09375
0
CIRCLE
8
0
10
11.50000
20
6.00000
30
0.0
40
0.09375
0
ENDSEC
0
EOF
