0
SECTION
2
HEADER
9
$INSUNITS
70
1
0
ENDSEC
0
SECTION
2
ENTITIES
0
LINE
8
0
10
0.25000
20
0.00000
30
0.0
11
15.12000
21
0.00000
31
0.0
0
ARC
8
0
10
15.12000
20
0.25000
30
0.0
40
0.25000
50
270.00000
51
360.00000
0
LINE
8
0
10
15.37000
20
0.25000
30
0.0
11
15.37000
21
28.44000
31
0.0
0
ARC
8
0
10
15.12000
20
28.44000
30
0.0
40
0.25000
50
0.00000
51
90.00000
0
LINE
8
0
10
15.12000
20
28.69000
30
0.0
11
0.25000
21
28.69000
31
0.0
0
ARC
8
0
10
0.25000
20
28.44000
30
0.0
40
0.25000
50
90.00000
51
180.00000
0
LINE
8
0
10
0.00000
20
28.44000
30
0.0
11
0.00000
21
0.25000
31
0.0
0
ARC
8
0
10
0.25000
20
0.25000
30
0.0
40
0.25000
50
180.00000
51
270.00000
0
LINE
8
0
10
1.85000
20
6.10000
30
0.0
11
13.52000
21
6.10000
31
0.0
0
ARC
8
0
10
13.52000
20
6.35000
30
0.0
40
0.25000
50
270.00000
51
360.00000
0
LINE
8
0
10
13.77000
20
6.35000
30
0.0
11
13.77000
21
27.09000
31
0.0
0
ARC
8
0
10
13.52000
20
27.09000
30
0.0
40
0.25000
50
0.00000
51
90.00000
0
LINE
8
0
10
13.52000
20
27.34000
30
0.0
11
1.85000
21
27.34000
31
0.0
0
ARC
8
0
10
1.85000
20
27.09000
30
0.0
40
0.25000
50
90.00000
51
180.00000
0
LINE
8
0
10
1.60000
20
27.09000
30
0.0
11
1.60000
21
6.35000
31
0.0
0
ARC
8
0
10
1.85000
20
6.35000
30
0.0
40
0.25000
50
180.00000
51
270.00000
0
LINE
8
0
10
2.00000
20
1.75000
30
0.0
11
13.37000
21
1.75000
31
0.0
0
ARC
8
0
10
13.37000
20
2.00000
30
0.0
40
0.25000
50
270.00000
51
360.00000
0
LINE
8
0
10
13.62000
20
2.00000
30
0.0
11
13.62000
21
4.50000
31
0.0
0
ARC
8
0
10
13.37000
20
4.50000
30
0.0
40
0.25000
50
0.00000
51
90.00000
0
LINE
8
0
10
13.37000
20
4.75000
30
0.0
11
2.00000
21
4.75000
31
0.0
0
ARC
8
0
10
2.00000
20
4.50000
30
0.0
40
0.25000
50
90.00000
51
180.00000
0
LINE
8
0
10
1.75000
20
4.50000
30
0.0
11
1.75000
21
2.00000
31
0.0
0
ARC
8
0
10
2.00000
20
2.00000
30
0.0
40
0.25000
50
180.00000
51
270.00000
0
CIRCLE
8
0
10
0.62500
20
0.62500
30
0.0
40
0.09375
0
CIRCLE
8
0
10
14.74500
20
0.62500
30
0.0
40
0.09375
0
CIRCLE
8
0
10
0.62500
20
7.48500
30
0.0
40
0.09375
0
CIRCLE
8
0
10
14.74500
20
7.48500
30
0.0
40
0.09375
0
CIRCLE
8
0
10
0.62500
20
14.34500
30
0.0
40
0.09375
0
CIRCLE
8
0
10
14.74500
20
14.34500
30
0.0
40
0.09375
0
CIRCLE
8
0
10
0.62500
20
21.20500
30
0.0
40
0.09375
0
CIRCLE
8
0
10
14.74500
20
21.20500
30
0.0
40
0.09375
0
CIRCLE
8
0
10
0.62500
20
28.06500
30
0.0
40
0.09375
0
CIRCLE
8
0
10
14.74500
20
28.06500
30
0.0
40
0.09375
0
CIRCLE
8
0
10
7.68500
20
0.62500
30
0.0
40
0.09375
0
CIRCLE
8
0
10
7.68500
20
28.06500
30
0.0
40
0.09375
0
ENDSEC
0
EOF
