0
SECTION
2
HEADER
9
$INSUNITS
70
1
0
ENDSEC
0
SECTION
2
ENTITIES
0
LINE
8
0
10
0.25000
20
0.00000
30
0.0
11
13.12000
21
0.00000
31
0.0
0
ARC
8
0
10
13.12000
20
0.25000
30
0.0
40
0.25000
50
270.00000
51
360.00000
0
LINE
8
0
10
13.37000
20
0.25000
30
0.0
11
13.37000
21
4.25000
31
0.0
0
ARC
8
0
10
13.12000
20
4.25000
30
0.0
40
0.25000
50
0.00000
51
90.00000
0
LINE
8
0
10
13.12000
20
4.50000
30
0.0
11
0.25000
21
4.50000
31
0.0
0
ARC
8
0
10
0.25000
20
4.25000
30
0.0
40
0.25000
50
90.00000
51
180.00000
0
LINE
8
0
10
0.00000
20
4.25000
30
0.0
11
0.00000
21
0.25000
31
0.0
0
ARC
8
0
10
0.25000
20
0.25000
30
0.0
40
0.25000
50
180.00000
51
270.00000
0
CIRCLE
8
0
10
3.18500
20
2.25000
30
0.0
40
0.60039
0
CIRCLE
8
0
10
6.68500
20
2.25000
30
0.0
40
0.60039
0
CIRCLE
8
0
10
10.18500
20
2.25000
30
0.0
40
0.60039
0
CIRCLE
8
0
10
0.37500
20
0.37500
30
0.0
40
0.09375
0
CIRCLE
8
0
10
6.68500
20
0.37500
30
0.0
40
0.09375
0
CIRCLE
8
0
10
12.99500
20
0.37500
30
0.0
40
0.09375
0
CIRCLE
8
0
10
0.37500
20
4.12500
30
0.0
40
0.09375
0
CIRCLE
8
0
10
6.68500
20
4.12500
30
0.0
40
0.09375
0
CIRCLE
8
0
10
12.99500
20
4.12500
30
0.0
40
0.09375
0
ENDSEC
0
EOF
